<?xml version="1.0" encoding="utf-8"?>
<!-- Svg Vector Icons : http://www.onlinewebfonts.com/icon -->
<!DOCTYPE svg PUBLIC "-//W3C//DTD SVG 1.1//EN" "http://www.w3.org/Graphics/SVG/1.1/DTD/svg11.dtd">
<svg version="1.1" xmlns="http://www.w3.org/2000/svg" xmlns:xlink="http://www.w3.org/1999/xlink" x="0px" y="0px" viewBox="0 0 1000 1000" enable-background="new 0 0 1000 1000" xml:space="preserve">
<metadata> Svg Vector Icons : http://www.onlinewebfonts.com/icon </metadata>
<g><g><path d="M954.7,855L774.6,674.8c-13.5-13.5-30.8-20.8-48.4-22.5c54.3-67.7,87-153.4,87-246.8C813.1,187.4,635.7,10,417.6,10C199.5,10,22.1,187.4,22.1,405.5C22.1,623.6,199.5,801,417.6,801c82.3,0,158.8-25.3,222.1-68.5c0.5,19.6,8,39.1,23,54.1l180.2,180.2c15.4,15.5,35.7,23.2,55.9,23.2s40.5-7.7,55.9-23.2C985.6,936,985.6,885.9,954.7,855z M417.6,669.2c-145.4,0-263.7-118.2-263.7-263.7c0-145.4,118.3-263.7,263.7-263.7c145.4,0,263.7,118.3,263.7,263.7C681.3,551,563,669.2,417.6,669.2z M598.9,405.5c0,29.1-23.6,52.7-52.7,52.7H295.7c-29.1,0-52.7-23.6-52.7-52.7c0-29.1,23.6-52.7,52.7-52.7h250.5C575.3,352.8,598.9,376.4,598.9,405.5z"/></g><g></g><g></g><g></g><g></g><g></g><g></g><g></g><g></g><g></g><g></g><g></g><g></g><g></g><g></g><g></g></g>
</svg>